<?xml version="1.0" ?><svg data-name="Layer 2" id="Layer_2" viewBox="0 0 2010 2010" xmlns="http://www.w3.org/2000/svg" xmlns:xlink="http://www.w3.org/1999/xlink"><defs><style>.cls-1{fill:url(#linear-gradient);}</style><linearGradient gradientUnits="userSpaceOnUse" id="linear-gradient" x1="354.77" x2="1733.64" y1="2459.08" y2="-419.95"><stop offset="0.7" stop-color="#ffe88a"/><stop offset="1" stop-color="#ffe4c5"/></linearGradient></defs><path class="cls-1" d="M967.8,1737.27a732.18,732.18,0,0,1-649.34-393.49,75,75,0,0,1,77.46-108.93,413.52,413.52,0,0,0,60.45,4.44c109,0,211.58-42.47,288.7-119.58S864.65,940.06,864.65,831A408.14,408.14,0,0,0,654.76,474.07a75,75,0,0,1,4.92-133.53c96.89-45,200.56-67.81,308.12-67.81a732.27,732.27,0,1,1,0,1464.54Z"/></svg>